<svg xmlns="http://www.w3.org/2000/svg" viewBox="0 0 512 512">
  <path d="M451 312.07v89.56a20 20 0 0 1-20 20h-25a35 35 0 0 0-70 0h-51.52V312.07z" fill="#cc7350"/>
  <path d="M451 312.07H284.48V249.46h69.06c15.91 0 41.17 6.32 52.42 17.57z" fill="#6fe3ff"/>
  <circle cx="371" cy="421.63" r="35" fill="#6fe3ff"/>
  <path d="M284.48 312.07V421.63H176a35 35 0 0 0-70 0H81a20 20 0 0 1-20-20V159.89a20 20 0 0 1 20-20h17.42a71.167 71.167 0 0 0 11.89 29.57l64.52 93.25 64.51-93.25a71.167 71.167 0 0 0 11.89-29.57h13.25a20.007 20.007 0 0 1 20 20V312.07z" fill="#f8ec7d"/>
  <path d="M252.09 128.99a68.842 68.842 0 0 1-.86 10.9 71.167 71.167 0 0 1-11.89 29.57l-64.51 93.25-64.52-93.25a70.962 70.962 0 0 1 9.88-92.54c30.18-28.74 79.1-28.74 109.27 0a71.782 71.782 0 0 1 11.63 52.67z" fill="#e48e66"/>
  <path d="M174.83 89.96a38.745 38.745 0 1 1-38.75 38.75 38.749 38.749 0 0 1 38.75-38.75z" fill="#6fe3ff"/>
  <circle cx="141" cy="421.63" r="35" fill="#6fe3ff"/>
  <path d="M81 427.63h19.443a41 41 0 0 0 81.114 0H330.443a41 41 0 0 0 81.114 0H431a26.029 26.029 0 0 0 26-26V312.07a6.094 6.094 0 0 0-.105-1.1c0-.019-.006-.039-.01-.058a5.889 5.889 0 0 0-.309-1.043c-.01-.025-.017-.05-.027-.075a6.1 6.1 0 0 0-.515-.977c-.013-.02-.023-.041-.037-.061a5.982 5.982 0 0 0-.763-.932L410.2 262.788c-13.331-13.332-41.159-19.328-56.662-19.328H290.48V159.89a26.029 26.029 0 0 0-26-26h-6.562c.105-1.629.172-3.264.172-4.9A77.379 77.379 0 0 0 233.6 72.575c-32.4-30.865-85.133-30.867-117.547 0A78.008 78.008 0 0 0 91.728 133.89H81a26.029 26.029 0 0 0-26 26V401.63A26.029 26.029 0 0 0 81 427.63zm60 23a29 29 0 1 1 29-29 29.034 29.034 0 0 1-29 29zm230 0a29 29 0 1 1 29-29 29.034 29.034 0 0 1-29 29zm74-49a14.015 14.015 0 0 1-14 14H411.557a41 41 0 0 0-81.114 0H290.48V318.07H445zM353.54 255.46c15.63 0 38.719 6.354 48.178 15.812l34.8 34.8H290.48V255.46zM124.328 81.265a74.044 74.044 0 0 1 100.994 0A65.488 65.488 0 0 1 246.09 128.99a63.36 63.36 0 0 1-.787 9.974 64.847 64.847 0 0 1-10.9 27.083L174.83 252.164l-59.587-86.119a64.833 64.833 0 0 1-10.895-27.081v-.009A65.743 65.743 0 0 1 124.328 81.265zM67 159.89a14.015 14.015 0 0 1 14-14H93.466a76.946 76.946 0 0 0 11.91 26.984l64.52 93.25a6 6 0 0 0 9.869 0l64.508-93.248a76.948 76.948 0 0 0 11.912-26.985h8.3a14.015 14.015 0 0 1 14 14V415.63H181.557a41 41 0 0 0-81.114 0H81a14.015 14.015 0 0 1-14-14z" fill="#63316d"/>
  <path d="M174.83 173.45a44.745 44.745 0 1 0-44.75-44.74 44.79 44.79 0 0 0 44.75 44.74zm0-77.49a32.745 32.745 0 1 1-32.75 32.75 32.782 32.782 0 0 1 32.75-32.75z" fill="#63316d"/>
</svg>
